<svg xmlns="http://www.w3.org/2000/svg" viewBox="68 24 64 68" width="32" height="32">
  <defs>
    <radialGradient id="g" cx="38%" cy="32%" r="68%">
      <stop offset="0%" stop-color="#FF2020"/>
      <stop offset="55%" stop-color="#CC0000"/>
      <stop offset="100%" stop-color="#8B0000"/>
    </radialGradient>
    <clipPath id="c"><circle cx="100" cy="58" r="30"/></clipPath>
  </defs>
  <circle cx="100" cy="58" r="32" fill="none" stroke="#CC0000" stroke-width="1" opacity="0.35"/>
  <circle cx="100" cy="58" r="30" fill="url(#g)"/>
  <g clip-path="url(#c)" stroke="#FF2020" stroke-width="0.6" fill="none" opacity="0.5">
    <ellipse cx="100" cy="48" rx="22" ry="6"/>
    <ellipse cx="100" cy="58" rx="26" ry="8"/>
    <ellipse cx="100" cy="68" rx="22" ry="6"/>
    <path d="M100 28 A 10 30 0 0 1 100 88"/>
    <path d="M100 28 A 10 30 0 0 0 100 88"/>
  </g>
  <path fill="#FF2020" opacity="0.7" clip-path="url(#c)" d="M82 52c6-4 14-4 20 2 4 4 2 12-6 14-8 2-16-4-14-12 0-2 0-3 0-4z"/>
  <path fill="#8B0000" d="M74 30 L80 22 L86 30 L92 18 L98 30 L104 20 L110 30 L118 24 L126 30 Z"/>
</svg>
